<svg width="85" height="157" viewBox="0 0 85 157" fill="none" xmlns="http://www.w3.org/2000/svg">
<path d="M51.6553 29.7825V148.675C51.6553 148.675 51.6553 156.184 45.0679 156.184C38.4806 156.184 38.4806 148.675 38.4806 148.675V29.4569C38.4806 27.8945 37.2634 26.6025 35.7037 26.5096L2.37809 24.5233C1.89626 24.4946 1.43275 24.3284 1.04239 24.0445C-0.754351 22.7378 -0.111103 19.9151 2.07439 19.5159L26.3369 15.0837C27.1045 14.9435 27.7854 14.5051 28.2307 13.8643L36.9862 1.26763C37.839 0.0407797 39.4738 -0.355701 40.7938 0.344209L82.8314 22.6336C85.6227 24.1136 84.4528 28.3522 81.2975 28.1909L54.7587 26.8338C53.071 26.7475 51.6553 28.0926 51.6553 29.7825Z" fill="#236CFF"/>
</svg>
