<svg width="223" height="256" viewBox="0 0 223 256" fill="none" xmlns="http://www.w3.org/2000/svg">
<path d="M3.35205 239.935C13.5645 245.037 22.5287 243.223 26.6137 231.43C31.7199 216.69 13.7862 194.527 25.479 179.838C45.3365 154.892 49.308 122.009 49.308 122.009C49.308 122.009 57.8184 139.358 57.8184 149.79C57.8184 162.829 42.4997 182.106 50.4427 198.547C58.3857 214.989 73.7044 221.792 88.4557 210.453C105.814 197.11 95.264 162.263 79.378 139.585C62.6976 115.773 77.6759 87.9922 83.9168 78.3541C88.9096 70.6436 99.6137 42.6363 104.342 29.5964C104.342 29.5964 108.427 54.5422 104.342 65.8812C99.2355 80.0549 87.321 110.67 99.2355 133.348C111.358 156.423 124.199 159.995 133.277 149.79C142.355 139.585 134.525 124.277 131.575 109.536C129.192 97.6303 131.575 77.2202 131.575 77.2202C131.575 77.2202 154.971 128.491 157.106 139.585C162.78 169.066 134.793 187.75 125.901 208.752C119.66 223.493 131.418 243.443 144.057 246.738C157.106 250.14 168.453 243.336 168.453 228.029C168.453 213.574 160.51 203.65 167.318 184.941C172.765 169.973 176.963 159.428 176.963 159.428C176.963 159.428 182.637 189.476 186.609 200.248C194.851 222.604 191.715 243.336 222.352 243.336" stroke="white" stroke-width="15"/>
</svg>
