<svg width="59" height="167" viewBox="0 0 59 167" fill="none" xmlns="http://www.w3.org/2000/svg">
<path d="M23.1399 159.695C23.1399 159.695 23.3863 166.019 30.5197 166.019C37.6531 166.019 37.6531 159.695 37.6531 159.695V79.6465C37.6531 78.119 38.8181 76.8437 40.3394 76.7059L56.3075 75.26C57.9281 75.1133 59.1244 73.6831 58.9826 72.0621L54.9 25.4187C54.842 24.7555 54.5615 24.1313 54.104 23.6475L32.6172 0.924036C31.4703 -0.288888 29.5467 -0.31056 28.3728 0.876216L5.83542 23.6598C5.36488 24.1355 5.06986 24.7569 4.99869 25.4222L0.0170582 71.9893C-0.159273 73.6376 1.0556 75.108 2.70758 75.2457L20.4326 76.7235C21.9629 76.851 23.1399 78.1303 23.1399 79.6658V159.695Z" fill="#FF7C40"/>
</svg>
