<svg width="56" height="161" viewBox="0 0 56 161" fill="none" xmlns="http://www.w3.org/2000/svg">
<path d="M32.5774 42.1405V152.973C32.5774 152.973 32.5774 160.132 25.99 160.132C19.4027 160.132 19.4027 152.973 19.4027 152.973V42.0261C19.4027 41.3541 19.1735 40.7023 18.7529 40.1782L4.84113 22.8419C4.73143 22.7052 4.63411 22.559 4.55034 22.405L0.359051 14.701C-0.285719 13.5159 -0.045115 12.0444 0.943559 11.1264L12.0762 0.788948C12.6223 0.281832 13.34 0 14.0853 0H14.479C17.1495 0 18.448 3.26336 16.5074 5.09806L9.99096 11.2591C9.08522 12.1154 8.81481 13.4483 9.31523 14.5899L10.4869 17.2629C10.9575 18.3366 12.0188 19.0301 13.1911 19.0301H16.6334C18.6478 19.0301 20.0708 17.0574 19.4352 15.1459L19.2448 14.5734C18.8656 13.4328 19.2155 12.1763 20.1297 11.396L32.6528 0.706832C33.1873 0.250624 33.867 0 34.5697 0H34.7121C37.4866 0 38.7292 3.48007 36.5822 5.2374L29.0279 11.4206C28.0936 12.1853 27.719 13.4418 28.0821 14.5932L28.83 16.9654C29.2175 18.1944 30.3573 19.0301 31.6459 19.0301H34.8853C37.0731 19.0301 38.4127 16.6302 37.2644 14.768C36.5295 13.5763 36.7897 12.0248 37.8731 11.138L50.7372 0.608805C51.2182 0.215108 51.8206 0 52.4422 0C54.9717 0 56.1046 3.1728 54.1471 4.77497L46.3108 11.189C45.2413 12.0644 44.9221 13.5646 45.5427 14.7996L48.5642 20.8121C49.1158 21.9099 48.93 23.2345 48.0977 24.1382L33.3582 40.1401C32.8561 40.6853 32.5774 41.3993 32.5774 42.1405Z" fill="#FF4444"/>
</svg>
