<svg width="430" height="283" viewBox="0 0 430 283" fill="none" xmlns="http://www.w3.org/2000/svg">
<path fill-rule="evenodd" clip-rule="evenodd" d="M248.206 282.123H80.0664C73.7493 282.123 68.6283 277.002 68.6283 270.685V237.515L11.0437 177.051C3.95428 169.607 3.05176e-05 159.722 3.05176e-05 149.442V76.2781C3.05176e-05 35.651 32.6124 2.54696 73.235 1.93914L202.632 0.00303325C217.313 -0.216641 229.333 11.6244 229.333 26.3076V69.3756H248.206C254.523 69.3756 259.644 74.4966 259.644 80.8137V165.455L349.451 86.8739C350.561 85.9028 351.381 84.644 351.821 83.2364L362.586 48.7871L379.843 32.8242C382.987 29.9167 387.861 29.9968 390.907 33.0062L427.051 68.7144C430.267 71.892 430.216 77.1008 426.938 80.2149L410.054 96.255L378.207 107.59C376.963 108.033 375.848 108.777 374.96 109.755L259.644 236.943V270.685C259.644 277.002 254.523 282.123 248.206 282.123ZM68.6283 165.455V80.8137C68.6283 74.4966 73.7493 69.3756 80.0664 69.3756H201.31V37.3491C201.31 32.9271 197.725 29.3424 193.303 29.3424L82.354 29.3424C52.0321 29.3424 27.4513 53.9232 27.4513 84.2451V138.895C27.4513 141.865 29.0947 144.59 31.7208 145.976L68.6283 165.455Z" fill="white"/>
</svg>
