<svg width="868" height="403" viewBox="0 0 868 403" fill="none" xmlns="http://www.w3.org/2000/svg">
<path d="M236.291 240.703L235.562 247.918C235.48 248.73 236.266 249.354 237.039 249.09L402.559 192.396C403.062 192.223 403.263 191.618 402.961 191.179C394.858 179.372 379.928 174.34 366.33 178.832L357.78 181.656C357.369 181.792 356.918 181.625 356.694 181.254L355.947 180.017C348.06 166.95 332.637 160.471 317.784 163.984C317.239 164.113 316.715 163.707 316.704 163.147C316.49 151.782 316.271 130.847 322.004 124.671C327.608 118.633 337.939 114.835 342.52 114.154C342.976 114.087 343.421 114.258 343.747 114.584C351.683 122.527 366.086 132.433 383.988 133.013C410.214 133.861 423.766 124.313 431.086 117.673C431.784 117.04 431.73 115.936 431.024 115.313C424.02 109.132 417.02 98.6194 389.168 94.0456C372.695 91.3404 352.869 100.898 344.654 106.739C344.491 106.855 344.314 106.935 344.119 106.982L338.757 108.282C334.52 109.309 330.48 111.019 326.794 113.345L324.108 115.04C322.925 115.787 321.438 114.7 321.791 113.346L327.129 92.8698C327.288 92.2618 327.795 91.8121 328.418 91.7315C335.005 90.8795 347.803 88.9808 365.023 74.1532C382.369 59.2164 386.177 33.563 384.32 22.9271C384.18 22.1276 383.404 21.6435 382.604 21.7821C374.613 23.1676 359.744 25.2325 346.286 36.159C328.802 50.3544 323.239 75.2004 322.746 86.6407C322.741 86.758 322.723 86.869 322.692 86.9822L316.643 109.089L313.419 128.725C313.185 130.151 311.343 130.475 310.68 129.191C304.506 117.221 298.402 101.444 271.649 93.7364C259.923 90.3578 245.345 94.8589 238.167 98.2669C237.35 98.6547 237.086 99.6676 237.578 100.426C241.289 106.145 248.392 116.495 260.82 122.587C273.545 128.825 291.216 125.725 298.588 122.809C299.322 122.519 300.172 122.769 300.574 123.449C302.866 127.324 306.802 134.488 308.584 139.62C310.471 145.055 310.137 158.652 309.683 165.701C309.647 166.263 309.133 166.664 308.577 166.572L302.512 165.576C277.485 161.466 256.745 184.889 263.855 209.234C263.994 209.711 263.702 210.207 263.217 210.316C248.643 213.601 237.795 225.839 236.291 240.703Z" fill="white"/>
<path d="M629.553 101.82C637.629 123.582 629.542 148.548 623.984 158.955C623.929 159.059 623.887 159.163 623.856 159.277L617.637 182.068C617.637 182.068 612.423 196.34 608.61 205.293C597.284 231.885 569.062 275.44 563.133 284.485C562.571 285.342 561.366 285.386 560.701 284.608L557.287 280.614C556.851 280.105 556.784 279.389 557.139 278.82C564.95 266.321 606.573 201.606 604.715 193.086C602.903 184.778 595.706 175.979 592.004 172.988C591.645 172.698 591.175 172.62 590.729 172.735C579.526 175.628 561.542 176.878 545.342 168.005C521.583 154.991 514.578 139.383 511.572 129.658C511.294 128.758 511.901 127.836 512.826 127.66C522.29 125.858 534.004 120.156 561.166 130.713C577.206 136.947 589.792 155.827 594.017 165.312C594.099 165.495 594.21 165.654 594.354 165.793L598.582 169.904C601.708 172.942 604.317 176.469 606.308 180.346L607.949 183.543C608.588 184.787 610.421 184.607 610.806 183.262L616.841 162.15C617.014 161.546 616.806 160.901 616.311 160.515C610.919 156.313 600.538 147.931 593.016 125.715C585.441 103.341 595.542 78.5462 602.766 70.1138C603.294 69.4974 604.208 69.4749 604.826 70.001C611.182 75.4128 623.325 85.0412 629.553 101.82Z" fill="white"/>
<path d="M671.861 259.779L618.249 322.652C615.974 325.32 616.981 329.432 620.231 330.746C622.276 331.573 624.62 331.002 626.056 329.328L659.683 290.106C669.687 277.784 682.381 259.702 690.179 258.854C699.533 257.838 711.304 262.325 715.673 265.144C716.06 265.394 716.283 265.814 716.315 266.273C717.196 278.983 722.167 298.249 737.124 312.092C759.14 332.467 777.972 334.235 789.158 333.952C790.099 333.928 790.778 333.061 790.648 332.128C789.175 321.597 791.175 307.35 770.539 282.532C758.411 267.948 734.263 261.404 722.893 260.316C722.694 260.296 722.508 260.241 722.33 260.149L715.94 256.85C712.067 254.851 707.894 253.496 703.585 252.838L698.012 251.988C696.72 251.791 696.243 250.178 697.219 249.31L741.892 209.584C742.414 209.119 743.18 209.062 743.762 209.449C750.046 213.617 762.431 221.499 788.213 221.589C814.329 221.679 836.766 202.312 842.944 191.848C843.357 191.149 843.09 190.276 842.395 189.858C834.549 185.136 820.201 175.722 800.396 175.08C774.835 174.252 751.579 191.44 742.662 200.879C742.582 200.965 742.496 201.037 742.398 201.102L720.756 215.573L702.947 230.382C701.836 231.306 700.225 230.343 700.561 228.938C704.135 213.978 711.016 195.791 693.591 168.956C685.986 157.245 669.939 150.246 661.3 147.887C660.428 147.649 659.561 148.24 659.435 149.136C658.366 156.744 656.668 171.037 662.855 185.642C669.173 200.558 686.835 211.082 695.255 213.976C696.001 214.233 696.474 214.978 696.334 215.756C695.432 220.742 693.461 229.964 691.145 235.759C688.597 242.137 677.227 254.43 671.861 259.779Z" fill="white"/>
<path d="M184.859 315.581L252.479 363.067C255.347 365.082 255.4 369.315 252.581 371.399C250.808 372.711 248.395 372.744 246.587 371.481L204.227 341.904C204.227 341.904 178.159 323.633 160.612 313.279C147.239 305.388 111.088 287.66 104.494 284.438C103.876 284.136 103.141 284.278 102.682 284.789C97.6442 290.39 87.6271 301.133 62.6564 307.668C37.391 314.28 10.8271 301.132 2.23069 292.544C1.65653 291.97 1.69626 291.058 2.26506 290.479C8.68274 283.947 20.2237 271.248 39.2404 265.678C63.7842 258.49 90.5966 269.324 101.589 276.236C101.688 276.299 101.789 276.347 101.9 276.386L126.472 284.992L147.415 294.882C148.722 295.499 150.041 294.165 149.365 292.887C142.167 279.294 130.961 263.403 141.129 233.066C145.567 219.827 159.357 209.041 167.133 204.599C167.918 204.15 168.905 204.506 169.251 205.342C172.187 212.442 177.401 225.857 175.059 241.544C172.668 257.566 158.194 272.169 150.765 277.074C150.106 277.509 149.834 278.35 150.165 279.067C152.283 283.67 156.496 292.107 160.186 297.14C164.247 302.679 178.327 311.742 184.859 315.581Z" fill="white"/>
<rect x="86.0186" y="180.534" width="700.535" height="700.535" rx="350.268" fill="white"/>
</svg>
