<svg width="63" height="49" viewBox="0 0 63 49" fill="none" xmlns="http://www.w3.org/2000/svg">
<path d="M31.1338 0C28.5386 -0.000210723 25.6981 0.0645358 22.8223 0.167969C9.90503 0.632564 0.000213623 11.4866 0 24.4121C0 37.3564 9.9328 48.2182 22.8691 48.6709C25.7291 48.771 28.5528 48.8342 31.1338 48.834C33.6714 48.8338 36.4392 48.7723 39.2422 48.6748C52.1805 48.2248 62.1113 37.3582 62.1113 24.4121C62.1112 11.4848 52.2082 0.625928 39.2891 0.164062C36.4701 0.0632844 33.6856 0.000210033 31.1338 0ZM44.1143 24.4844C48.2596 24.4844 51.6201 27.8449 51.6201 31.9902C51.6201 36.1356 48.2596 39.4961 44.1143 39.4961C39.969 39.496 36.6084 36.1355 36.6084 31.9902C36.6084 27.845 39.969 24.4845 44.1143 24.4844ZM20.418 13.5479C26.5175 13.5479 31.4618 18.4923 31.4619 24.5918C31.4619 30.6914 26.5176 35.6367 20.418 35.6367C14.3184 35.6367 9.37402 30.6914 9.37402 24.5918C9.37418 18.4924 14.3185 13.5479 20.418 13.5479ZM41.5957 8.61523C44.2902 8.61523 46.4746 10.7997 46.4746 13.4941C46.4745 16.1885 44.2901 18.373 41.5957 18.373C38.9013 18.373 36.7169 16.1885 36.7168 13.4941C36.7168 10.7997 38.9012 8.61524 41.5957 8.61523Z" fill="black"/>
</svg>
