<svg width="33" height="36" viewBox="0 0 33 36" fill="none" xmlns="http://www.w3.org/2000/svg">
<path d="M11.6256 3.43951C12.9344 -1.1465 19.4337 -1.1465 20.7425 3.43951C21.4445 5.89958 23.972 7.35878 26.4535 6.73676C31.0795 5.5772 34.3291 11.2057 31.0119 14.6322C29.2325 16.4702 29.2325 19.3886 31.0119 21.2267C34.3291 24.6531 31.0795 30.2817 26.4535 29.1221C23.972 28.5001 21.4445 29.9593 20.7425 32.4194C19.4337 37.0054 12.9344 37.0054 11.6256 32.4194C10.9236 29.9593 8.39614 28.5001 5.91462 29.1221C1.28862 30.2817 -1.96101 24.6531 1.35619 21.2267C3.13564 19.3886 3.13564 16.4702 1.35619 14.6322C-1.96101 11.2057 1.28862 5.5772 5.91462 6.73676C8.39614 7.35878 10.9236 5.89958 11.6256 3.43951Z" fill="white"/>
</svg>
